PathFileType	4	(X/Y/Z)	1H_nor_med_left.trc
DataRate	CameraRate	NumFrames	NumMarkers	Units	OrigDataRate	OrigDataStartFrame	OrigNumFrames
250.00	250.00	18	18	mm	250.00	6686	7640
Frame#	Time	c7	r_should	l_should	clavicle	r_upa	r_elb_l	r_elb_m	r_low	r_wri_l	r_wri_m	r_met	l_upa	l_elb_l	l_elb_m	l_low	l_wri_l	l_wri_m	l_met
	X1	Y1	Z1	X2	Y2	Z2	X3	Y3	Z3	X4	Y4	Z4	X5	Y5	Z5	X6	Y6	Z6	X7	Y7	Z7	X8	Y8	Z8	X9	Y9	Z9	X10	Y10	Z10	X11	Y11	Z11	X12	Y12	Z12	X13	Y13	Z13	X14	Y14	Z14	X15	Y15	Z15	X16	Y16	Z16	X17	Y17	Z17	X18	Y18	Z18
6686	26.74000	1231.46106	1425.62622	147.89613	1270.78381	1351.04114	314.28317	1251.46301	1380.75500	-11.31490	1342.85986	1286.46387	145.90569	1287.74097	1133.11279	359.52347	1292.69055	1041.42139	373.08963	1223.34900	1013.56342	309.79123	1307.86963	906.69269	365.26199	1319.88403	780.14471	349.83994	1255.21130	783.11133	391.29205	1334.29675	718.74261	395.50211	1320.34521	1192.62488	-91.81245	1355.97510	1135.84802	-105.13267	1295.36182	1082.65918	-38.16931	1402.72180	1162.13062	-23.05651	1412.90051	1226.53015	61.87964	1435.50366	1162.22876	97.21142	1474.99036	1257.81140	117.11353
6687	26.74400	1231.39185	1425.61572	147.85423	1270.81348	1351.04639	314.23041	1251.31201	1380.70679	-11.38219	1342.76245	1286.51331	145.72879	1287.76562	1133.11267	359.49966	1292.73633	1041.43103	373.06769	1223.36438	1013.57080	309.78903	1307.90735	906.69885	365.23050	1319.90454	780.14471	349.81143	1255.26135	783.12311	391.29773	1334.34961	718.76587	395.48676	1320.12976	1192.54333	-91.86120	1355.77612	1135.78320	-105.18862	1295.21948	1082.61267	-38.11319	1402.20325	1162.53369	-23.40617	1412.75671	1226.65137	61.69063	1434.69495	1162.83411	96.73615	1474.88965	1257.95032	116.84007
6688	26.74800	1231.31848	1425.60706	147.80576	1270.84155	1351.05469	314.17328	1251.16614	1380.65564	-11.44854	1342.66223	1286.55579	145.55365	1287.78186	1133.11816	359.47626	1292.78394	1041.43823	373.03854	1223.37927	1013.57129	309.78839	1307.94653	906.70441	365.20349	1319.93066	780.16138	349.80127	1255.30420	783.12885	391.29688	1334.40112	718.78552	395.46854	1319.91150	1192.46460	-91.91906	1355.57617	1135.71973	-105.25161	1295.06177	1082.56812	-38.07454	1401.08020	1164.15881	-24.64459	1412.61499	1226.74988	61.48898	1432.87915	1164.18103	95.59966	1474.79114	1258.07190	116.56696
6689	26.75200	1231.24438	1425.60217	147.75449	1270.86670	1351.06616	314.12372	1251.02161	1380.60620	-11.50981	1342.11133	1285.70056	144.63776	1287.81348	1133.12988	359.44379	1292.81970	1041.44397	372.98828	1223.39600	1013.57019	309.79028	1307.98071	906.71228	365.16983	1319.95947	780.17535	349.78348	1255.34314	783.13721	391.29065	1334.45154	718.80334	395.44485	1319.68958	1192.39246	-91.98775	1355.37244	1135.65088	-105.31799	1294.89880	1082.51001	-38.04551	1400.65833	1164.57202	-25.03062	1412.48438	1226.83362	61.29791	1432.27197	1164.61145	95.27753	1474.69617	1258.17664	116.29317
6690	26.75600	1231.16919	1425.59692	147.70534	1270.88452	1351.08386	314.07001	1250.88611	1380.55786	-11.57732	1340.97913	1283.70947	142.75957	1287.84399	1133.15393	359.40384	1292.86646	1041.46619	372.95398	1223.41980	1013.58008	309.79156	1308.01184	906.72705	365.13730	1319.98303	780.19061	349.76147	1255.39551	783.15900	391.30179	1334.49963	718.82452	395.41953	1319.02002	1192.72949	-92.44822	1355.18140	1135.58459	-105.38400	1294.72546	1082.45813	-38.03955	1400.42053	1164.67639	-25.19587	1412.36133	1226.90820	61.12997	1431.96057	1164.79358	95.15849	1474.61609	1258.26685	116.02783
6691	26.76000	1231.09387	1425.59265	147.65823	1270.89160	1351.10303	314.01752	1250.75952	1380.51721	-11.63725	1340.62305	1283.28918	142.19846	1287.88989	1133.18799	359.36148	1292.91736	1041.48987	372.92142	1223.44202	1013.59772	309.78909	1308.05249	906.74719	365.09180	1320.01331	780.20630	349.73581	1255.44592	783.17920	391.30560	1334.55420	718.84906	395.39432	1318.24353	1193.17908	-93.00455	1354.99670	1135.52380	-105.45228	1294.54944	1082.40698	-38.03370	1400.22314	1164.69800	-25.29544	1412.24609	1226.97327	60.95367	1431.72253	1164.90125	95.10720	1474.55823	1258.33411	115.77791
6692	26.76400	1231.02039	1425.59143	147.60951	1270.88599	1351.12695	313.96967	1250.63159	1380.47986	-11.70190	1340.45715	1283.26086	141.96976	1287.93518	1133.22351	359.31378	1292.96179	1041.51440	372.89297	1223.46460	1013.62469	309.78156	1308.09998	906.77502	365.05441	1320.04541	780.23102	349.71188	1255.50378	783.20184	391.31528	1334.60828	718.87653	395.37396	1318.80835	1192.42810	-92.44736	1354.81372	1135.45947	-105.51278	1294.37183	1082.36914	-38.02924	1400.03247	1164.69958	-25.38414	1412.14319	1227.03015	60.77131	1431.49707	1164.95532	95.05990	1474.51587	1258.37305	115.55165
6693	26.76800	1230.94666	1425.58960	147.55223	1270.87390	1351.15308	313.91998	1250.51685	1380.44604	-11.76593	1340.34631	1283.31421	141.83284	1287.98499	1133.26648	359.26617	1293.00854	1041.54749	372.85168	1223.48889	1013.64923	309.78436	1308.14758	906.80737	365.02795	1320.07959	780.25897	349.69632	1255.56311	783.23474	391.31711	1334.66650	718.91010	395.34717	1318.80127	1192.19116	-92.35944	1354.62561	1135.40906	-105.57890	1294.18774	1082.33508	-38.04569	1399.84961	1164.68787	-25.46867	1412.04993	1227.07471	60.57925	1431.27686	1164.99878	95.00607	1474.48120	1258.38708	115.33779
6694	26.77200	1230.87500	1425.59338	147.50432	1270.85229	1351.18030	313.86380	1250.40942	1380.41711	-11.82446	1340.23840	1283.36853	141.70482	1288.03540	1133.31726	359.21033	1293.04541	1041.57544	372.80209	1223.50977	1013.67310	309.78436	1308.19873	906.83368	364.99219	1320.11548	780.29559	349.67297	1255.61633	783.26001	391.31635	1334.72302	718.94122	395.32291	1318.65100	1192.08057	-92.38870	1354.43591	1135.34607	-105.64478	1293.99731	1082.29822	-38.06174	1399.67517	1164.65735	-25.55103	1411.96387	1227.10461	60.40105	1431.08130	1165.03809	94.97569	1474.44995	1258.37842	115.13654
6695	26.77600	1230.80591	1425.59460	147.44884	1270.81995	1351.21277	313.80524	1250.30750	1380.38611	-11.88580	1340.13245	1283.41821	141.59013	1288.08130	1133.36060	359.15228	1293.07275	1041.60986	372.74933	1223.52747	1013.70227	309.77328	1308.24170	906.86853	364.96127	1320.15735	780.32928	349.64771	1255.67358	783.28625	391.31168	1334.77405	718.96796	395.29214	1318.47437	1191.99976	-92.44279	1354.24097	1135.26819	-105.70739	1293.79773	1082.25610	-38.07755	1399.49780	1164.60400	-25.63615	1411.88940	1227.11487	60.24300	1430.88196	1165.06958	94.95539	1474.28979	1258.06970	115.06067
6696	26.78000	1230.73633	1425.59534	147.38902	1270.78003	1351.24561	313.74609	1250.21179	1380.35315	-11.94375	1340.04492	1283.47754	141.50807	1288.11047	1133.39368	359.08957	1293.09888	1041.64514	372.70288	1223.55212	1013.72327	309.75269	1308.27576	906.90027	364.92416	1320.19238	780.36621	349.62247	1255.72461	783.31433	391.30191	1334.82458	718.99323	395.25543	1318.29834	1191.92554	-92.50381	1354.04126	1135.17566	-105.76782	1293.59680	1082.20959	-38.09354	1399.32324	1164.54028	-25.71010	1411.82300	1227.10974	60.09402	1431.40100	1164.56128	95.41888	1473.95715	1257.39587	115.12402
6697	26.78400	1230.66455	1425.59338	147.32442	1270.73291	1351.27502	313.68777	1250.11548	1380.31836	-12.01316	1339.96838	1283.54102	141.43925	1288.14148	1133.43384	359.03333	1293.12354	1041.68567	372.66364	1223.57104	1013.73468	309.72363	1308.30298	906.92792	364.89664	1320.21814	780.39734	349.59277	1255.76343	783.34430	391.27975	1334.87524	719.02252	395.21021	1318.12598	1191.85291	-92.56724	1353.83459	1135.07312	-105.83127	1293.39380	1082.15784	-38.11605	1399.15369	1164.45007	-25.77912	1411.76038	1227.07788	59.96283	1432.83057	1163.37817	96.48363	1473.86560	1257.15369	115.00059
6698	26.78800	1230.59399	1425.59241	147.25897	1270.69104	1351.30188	313.62430	1250.01709	1380.28284	-12.08755	1339.87793	1283.58862	141.34450	1288.14392	1133.46716	358.97958	1293.13379	1041.72339	372.61862	1223.56921	1013.75403	309.69876	1308.32239	906.96417	364.86169	1320.24060	780.43304	349.56381	1255.79980	783.36505	391.26013	1334.91711	719.05994	395.16788	1317.95752	1191.77832	-92.62569	1353.63416	1134.96118	-105.89635	1293.18188	1082.10974	-38.14608	1398.98486	1164.35339	-25.85335	1411.70996	1227.02283	59.81894	1433.02710	1163.05200	96.72228	1473.83960	1257.00452	114.83260
6699	26.79200	1230.52332	1425.59265	147.18861	1270.64111	1351.33118	313.56308	1249.92310	1380.24963	-12.15774	1339.78967	1283.62891	141.25566	1288.12598	1133.50012	358.91708	1293.13904	1041.76282	372.56104	1223.55859	1013.77478	309.67014	1308.33960	907.00568	364.81613	1320.25903	780.46478	349.53180	1255.82983	783.38702	391.23856	1334.95837	719.09979	395.12210	1317.33630	1192.10938	-93.06152	1353.43958	1134.83716	-105.96201	1292.96753	1082.06250	-38.17294	1398.82019	1164.23816	-25.93315	1411.66553	1226.95581	59.67554	1432.91138	1162.91711	96.75114	1473.83862	1256.85974	114.65857
6700	26.79600	1230.45361	1425.59241	147.11243	1270.59180	1351.36304	313.50134	1249.83411	1380.21851	-12.22622	1339.70581	1283.66223	141.17511	1288.09863	1133.52612	358.85709	1293.13879	1041.80273	372.50925	1223.55420	1013.79730	309.63574	1308.35144	907.04327	364.78113	1320.27454	780.49371	349.49084	1255.86230	783.42206	391.20935	1334.99695	719.14307	395.07733	1316.15442	1192.94556	-93.96514	1353.24451	1134.71265	-106.01895	1292.75830	1082.00195	-38.19351	1398.65662	1164.11157	-26.01194	1411.62366	1226.86829	59.53861	1432.71313	1162.79175	96.70001	1473.84644	1256.69287	114.48945
6701	26.80000	1230.38281	1425.59338	147.04185	1270.55029	1351.38965	313.43674	1249.74670	1380.18970	-12.29786	1339.63013	1283.68311	141.10628	1288.35486	1133.37268	358.82758	1293.12781	1041.84448	372.46725	1223.54688	1013.81622	309.59616	1308.35181	907.07397	364.73907	1320.29211	780.52582	349.44464	1255.89294	783.44952	391.18350	1335.03064	719.18811	395.03189	1315.74243	1193.09448	-94.23787	1353.04578	1134.59155	-106.09091	1292.54529	1081.93628	-38.22694	1398.50684	1163.97766	-26.07913	1411.59155	1226.76794	59.39962	1432.52014	1162.68616	96.67052	1473.86499	1256.50439	114.33698
6702	26.80400	1230.31360	1425.59631	146.97935	1270.50793	1351.41443	313.37381	1249.66211	1380.15125	-12.37208	1339.54785	1283.70251	141.03288	1288.68225	1133.17432	358.81519	1293.10620	1041.88074	372.42044	1223.52393	1013.84924	309.56311	1308.34680	907.10687	364.69360	1320.30347	780.56958	349.40182	1255.92322	783.48914	391.16330	1335.06348	719.22992	394.98480	1315.52856	1193.07190	-94.34790	1352.84277	1134.47119	-106.16207	1292.33032	1081.87805	-38.26428	1398.36646	1163.83813	-26.13677	1411.57690	1226.65308	59.26890	1432.33826	1162.56506	96.65291	1473.89648	1256.29309	114.19992
6703	26.80800	1230.24683	1425.60168	146.91678	1270.47302	1351.43872	313.31042	1249.58191	1380.11243	-12.44807	1339.46899	1283.71741	140.95853	1288.16943	1133.49744	358.72601	1293.09290	1041.91003	372.36154	1223.49353	1013.87738	309.53955	1308.33862	907.14398	364.64578	1320.30957	780.60492	349.35373	1255.94434	783.52911	391.13388	1335.09961	719.26947	394.93280	1315.36084	1193.00110	-94.41387	1352.64160	1134.35559	-106.23471	1292.10303	1081.81543	-38.31090	1398.23352	1163.68555	-26.20977	1411.57080	1226.52234	59.15364	1432.14221	1162.40466	96.60339	1473.93726	1256.05908	114.06639
